<svg xmlns="http://www.w3.org/2000/svg" version="1.1" xmlns:xlink="http://www.w3.org/1999/xlink" xmlns:svgjs="http://svgjs.dev/svgjs" width="1000" height="1000" viewBox="0 0 1000 1000"><rect width="1000" height="1000" fill="#046380"></rect><g transform="matrix(0.7,0,0,0.7,150.05586875418015,94.67846153846153)"><svg viewBox="0 0 213 247" data-background-color="#046380" preserveAspectRatio="xMidYMid meet" height="1159" width="1000" xmlns="http://www.w3.org/2000/svg" xmlns:xlink="http://www.w3.org/1999/xlink"><g id="tight-bounds" transform="matrix(1,0,0,1,-0.016999936227989565,-0.09999999999999432)"><svg viewBox="0 0 213.03371579743245 247.2" height="247.2" width="213.03371579743245"><g><svg></svg></g><g><svg viewBox="0 0 213.03371579743245 247.2" height="247.2" width="213.03371579743245"><g transform="matrix(1,0,0,1,0,47.215199999999996)"><svg viewBox="0 0 213.03371579743245 152.7696" height="152.7696" width="213.03371579743245"><g><svg viewBox="0 0 213.03371579743245 152.7696" height="152.7696" width="213.03371579743245"><g><svg viewBox="0 0 244.43135999999998 175.28531084799323" height="152.7696" width="213.03371579743245"><g><svg viewBox="0 0 244.43135999999998 175.28531084799323" height="175.28531084799323" width="244.43135999999998"><g id="textblocktransform"><svg viewBox="0 0 244.43135999999998 175.28531084799323" height="175.28531084799323" width="244.43135999999998" id="textblock"><g><svg viewBox="0 0 244.43135999999998 96.56048766942149" height="96.56048766942149" width="244.43135999999998"><g transform="matrix(1,0,0,1,0,0)"><svg width="244.43135999999998" viewBox="2.049999952316284 -35.349998474121094 90.73999786376953 35.849998474121094" height="96.56048766942149" data-palette-color="#ffffff"><path d="M7.1-12.55L7.1-12.55Q7.2-8.7 9.45-6.23 11.7-3.75 15.75-3.75L15.75-3.75Q18.75-3.75 21.35-5.4L21.35-5.4 21.35-1Q18.9 0.5 15.1 0.5L15.1 0.5Q9.15 0.5 5.6-3.25 2.05-7 2.05-12.6L2.05-12.6Q2.05-18.05 5.63-21.93 9.2-25.8 15.3-25.8L15.3-25.8Q18.6-25.8 21.35-24.4L21.35-24.4 21.35-19.9Q18.9-21.45 15.8-21.45L15.8-21.45Q11.85-21.45 9.47-18.95 7.1-16.45 7.1-12.55ZM37.25-3.95L37.25-3.95Q40.15-3.95 42.15-6.15 44.15-8.35 44.15-12.85L44.15-12.85Q44.15-17.2 42.07-19.3 40-21.4 37.4-21.4L37.4-21.4Q34.45-21.4 32.55-19.07 30.65-16.75 30.65-12.45L30.65-12.45Q30.65-8.65 32.52-6.3 34.4-3.95 37.25-3.95ZM44.15-21.5L44.15-35.35 49.1-35.35 49.1 0 44.15 0 44.15-3.85Q41.5 0.35 36.4 0.35L36.4 0.35Q31.4 0.35 28.5-3.43 25.6-7.2 25.6-12.55L25.6-12.55Q25.6-18.5 28.65-22.1 31.7-25.7 36.5-25.7L36.5-25.7Q41.45-25.7 44.15-21.5L44.15-21.5ZM70.45-24.5L70.45-24.5 70.45-20.05Q68-21.5 64.15-21.5L64.15-21.5Q62.4-21.5 61.37-20.7 60.34-19.9 60.34-18.6L60.34-18.6Q60.34-18.25 60.42-17.93 60.5-17.6 60.7-17.28 60.9-16.95 61.07-16.73 61.25-16.5 61.65-16.25 62.05-16 62.27-15.83 62.5-15.65 63.02-15.4 63.55-15.15 63.8-15.03 64.05-14.9 64.67-14.63 65.3-14.35 65.55-14.25L65.55-14.25Q68.5-12.95 70.17-11.33 71.84-9.7 71.84-7L71.84-7Q71.84-3.6 69.45-1.68 67.05 0.25 62.95 0.25L62.95 0.25Q58.45 0.25 55.45-1.25L55.45-1.25 55.45-5.9Q58.95-3.75 62.7-3.75L62.7-3.75Q64.65-3.75 65.72-4.55 66.8-5.35 66.8-6.65L66.8-6.65Q66.8-7.75 65.95-8.63 65.09-9.5 64.22-9.93 63.34-10.35 61.25-11.25L61.25-11.25Q55.3-13.7 55.3-18.45L55.3-18.45Q55.3-21.8 57.8-23.7 60.3-25.6 64.05-25.6L64.05-25.6Q68.15-25.6 70.45-24.5ZM91.39-24.5L91.39-24.5 91.39-20.05Q88.94-21.5 85.09-21.5L85.09-21.5Q83.34-21.5 82.32-20.7 81.29-19.9 81.29-18.6L81.29-18.6Q81.29-18.25 81.37-17.93 81.44-17.6 81.64-17.28 81.84-16.95 82.02-16.73 82.19-16.5 82.59-16.25 82.99-16 83.22-15.83 83.44-15.65 83.97-15.4 84.49-15.15 84.74-15.03 84.99-14.9 85.62-14.63 86.24-14.35 86.49-14.25L86.49-14.25Q89.44-12.95 91.12-11.33 92.79-9.7 92.79-7L92.79-7Q92.79-3.6 90.39-1.68 87.99 0.25 83.89 0.25L83.89 0.25Q79.39 0.25 76.39-1.25L76.39-1.25 76.39-5.9Q79.89-3.75 83.64-3.75L83.64-3.75Q85.59-3.75 86.67-4.55 87.74-5.35 87.74-6.65L87.74-6.65Q87.74-7.75 86.89-8.63 86.04-9.5 85.17-9.93 84.29-10.35 82.19-11.25L82.19-11.25Q76.24-13.7 76.24-18.45L76.24-18.45Q76.24-21.8 78.74-23.7 81.24-25.6 84.99-25.6L84.99-25.6Q89.09-25.6 91.39-24.5Z" opacity="1" transform="matrix(1,0,0,1,0,0)" fill="#ffffff" class="wordmark-text-0" data-fill-palette-color="primary" id="text-0"></path></svg></g></svg></g><g transform="matrix(1,0,0,1,0,119.35610135646783)"><svg viewBox="0 0 244.43135999999998 55.929209491525405" height="55.929209491525405" width="244.43135999999998"><g transform="matrix(1,0,0,1,0,0)"><svg width="244.43135999999998" viewBox="3.6500000953674316 -35.900001525878906 159.29000854492188 36.45000076293945" height="55.929209491525405" data-palette-color="#ffffff"><path d="M37.55-17.4L37.55 0 33.6 0 33.6-16.4Q33.6-22.15 28.75-22.15L28.75-22.15Q26.35-22.15 24.45-19.98 22.55-17.8 22.55-13.85L22.55-13.85 22.55 0 18.6 0 18.6-16.4Q18.6-22.15 13.75-22.15L13.75-22.15Q11.35-22.15 9.45-19.98 7.55-17.8 7.55-13.85L7.55-13.85 7.55 0 3.65 0 3.65-25.35 7.55-25.35 7.55-21.25Q9.65-25.7 14.7-25.7L14.7-25.7Q20.55-25.7 22.1-20.75L22.1-20.75Q23.2-23.15 25.18-24.43 27.15-25.7 29.6-25.7L29.6-25.7Q33.55-25.7 35.55-23.45 37.55-21.2 37.55-17.4L37.55-17.4ZM63.05-5L63.05-1.3Q60.1 0.25 55.85 0.25L55.85 0.25Q50.1 0.25 46.57-3.28 43.05-6.8 43.05-12.6L43.05-12.6Q43.05-18.65 46.2-22.15 49.35-25.65 54.3-25.65L54.3-25.65Q59.05-25.65 61.85-22.6 64.65-19.55 64.65-13.95L64.65-13.95Q64.65-12.35 64.4-11L64.4-11 47.1-11Q47.55-7.25 49.95-5.25 52.35-3.25 56.25-3.25L56.25-3.25Q60.5-3.25 63.05-5L63.05-5ZM54.3-22.2L54.3-22.2Q51.45-22.2 49.45-20.15 47.45-18.1 47.1-14.3L47.1-14.3 60.7-14.3 60.7-15.3Q60.7-18.45 59-20.33 57.3-22.2 54.3-22.2ZM73.25-12.4L73.25-12.4Q73.25-8.3 75.25-5.75 77.25-3.2 80.3-3.2L80.3-3.2Q83.4-3.2 85.57-5.5 87.75-7.8 87.75-12.85L87.75-12.85Q87.75-17.65 85.5-19.9 83.25-22.15 80.55-22.15L80.55-22.15Q77.4-22.15 75.32-19.63 73.25-17.1 73.25-12.4ZM91.7-35.35L91.7 0 87.75 0 87.75-3.75Q85.05 0.4 79.95 0.4L79.95 0.4Q74.9 0.4 72.02-3.35 69.15-7.1 69.15-12.45L69.15-12.45Q69.15-18.4 72.2-22.08 75.25-25.75 80.05-25.75L80.05-25.75Q85-25.75 87.75-21.5L87.75-21.5 87.75-35.35 91.7-35.35ZM103.14-25.35L103.14 0 99.19 0 99.19-25.35 103.14-25.35ZM102.99-35.15Q103.74-34.4 103.74-33.3 103.74-32.2 102.99-31.48 102.24-30.75 101.14-30.75 100.04-30.75 99.32-31.48 98.59-32.2 98.59-33.3 98.59-34.4 99.32-35.15 100.04-35.9 101.14-35.9 102.24-35.9 102.99-35.15ZM128.09-4.65L128.09-0.9Q125.69 0.55 122.19 0.55L122.19 0.55Q116.19 0.55 112.67-3.28 109.14-7.1 109.14-12.6L109.14-12.6Q109.14-18 112.67-21.9 116.19-25.8 122.29-25.8L122.29-25.8Q125.54-25.8 128.09-24.4L128.09-24.4 128.09-20.65Q125.79-22.2 122.69-22.2L122.69-22.2Q118.39-22.2 115.82-19.43 113.24-16.65 113.24-12.55L113.24-12.55Q113.29-8.45 115.74-5.73 118.19-3 122.69-3L122.69-3Q125.59-3 128.09-4.65L128.09-4.65ZM141.94-3.05L141.94-3.05Q144.64-3.05 146.24-4.58 147.84-6.1 147.84-8.45L147.84-8.45 147.84-11.7 143.44-11.7Q140.24-11.7 138.64-10.45 137.04-9.2 137.04-7.3 137.04-5.4 138.29-4.23 139.54-3.05 141.94-3.05ZM147.89 0L147.89-3Q145.94 0.25 140.79 0.25L140.79 0.25Q137.24 0.25 135.06-1.85 132.89-3.95 132.89-7.15L132.89-7.15Q132.89-10.8 135.66-12.83 138.44-14.85 143.24-14.85L143.24-14.85 147.84-14.85 147.84-16.15Q147.84-19.15 146.49-20.68 145.14-22.2 141.94-22.2L141.94-22.2Q137.89-22.2 134.74-20.05L134.74-20.05 134.74-24Q137.59-25.75 142.24-25.75L142.24-25.75Q151.79-25.75 151.79-16.05L151.79-16.05 151.79 0 147.89 0ZM162.94-35.35L162.94 0 158.99 0 158.99-35.35 162.94-35.35Z" opacity="1" transform="matrix(1,0,0,1,0,0)" fill="#ffffff" class="slogan-text-1" data-fill-palette-color="secondary" id="text-1"></path></svg></g></svg></g></svg></g></svg></g><g></g></svg></g></svg></g></svg></g><path d="M0 41.215L0 1 213.034 1 213.034 41.215 205.444 41.215 205.444 8.589 7.589 8.589 7.589 41.215 0 41.215M0 205.985L0 246.2 213.034 246.2 213.034 205.985 205.444 205.985 205.444 238.611 7.589 238.611 7.589 205.985 0 205.985" fill="#ffffff" stroke="transparent" data-fill-palette-color="primary"></path></svg></g><defs></defs></svg><rect width="213.03371579743245" height="247.2" fill="none" stroke="none" visibility="hidden"></rect></g></svg></g></svg>